<?xml version="1.0" encoding="utf-8"?>
<!-- Generator: Adobe Illustrator 19.2.1, SVG Export Plug-In . SVG Version: 6.00 Build 0)  -->
<svg version="1.0" id="Layer_1" xmlns="http://www.w3.org/2000/svg" xmlns:xlink="http://www.w3.org/1999/xlink" x="0px" y="0px"
	 viewBox="0 0 32 32" style="enable-background:new 0 0 32 32;" xml:space="preserve">
<style type="text/css">
	.st0{fill-rule:evenodd;clip-rule:evenodd;fill:#42BDA1;}
</style>
<path class="st0" d="M32,9c0-2.8-2.2-5-5-5H5C2.2,4,0,6.2,0,9v13c0,2.8,2.2,5,5,5h22c2.8,0,5-2.2,5-5V9z M28.8,9.4l-12.2,7.9
	c-0.2,0.1-0.4,0.2-0.5,0.2c-0.2,0-0.4-0.1-0.5-0.2L3.2,9.4C2.8,9.1,2.6,8.5,2.9,8c0.3-0.5,0.9-0.6,1.4-0.3L16,15.3l11.7-7.6
	c0.5-0.3,1.1-0.2,1.4,0.3C29.4,8.5,29.2,9.1,28.8,9.4z"/>
</svg>
