<?xml version="1.0" encoding="utf-8"?>
<!-- Generator: Adobe Illustrator 16.0.4, SVG Export Plug-In . SVG Version: 6.00 Build 0)  -->
<!DOCTYPE svg PUBLIC "-//W3C//DTD SVG 1.0//EN" "http://www.w3.org/TR/2001/REC-SVG-20010904/DTD/svg10.dtd">
<svg version="1.0" id="Layer_1" xmlns="http://www.w3.org/2000/svg" xmlns:xlink="http://www.w3.org/1999/xlink" x="0px" y="0px"
	 width="366px" height="46px" viewBox="0 0 366 46" enable-background="new 0 0 366 46" xml:space="preserve">
<g>
	<g>
		<g>
			<path fill="#00CC99" d="M13.035,17.009c0.122,0.306,0.24,0.615,0.355,0.927c0.116-0.323,0.237-0.632,0.364-0.927
				s0.271-0.592,0.434-0.893L22.59,0.852c0.15-0.265,0.306-0.427,0.468-0.483c0.161-0.059,0.392-0.088,0.693-0.088h2.477v24.828
				h-2.945V6.865c0-0.242,0.006-0.502,0.018-0.779c0.011-0.277,0.028-0.562,0.051-0.85l-8.507,15.523
				c-0.289,0.52-0.693,0.779-1.213,0.779h-0.485c-0.519,0-0.924-0.26-1.212-0.779L3.237,5.183c0.034,0.301,0.06,0.596,0.078,0.885
				c0.017,0.288,0.026,0.555,0.026,0.797v18.242H0.396V0.281h2.478c0.301,0,0.531,0.029,0.693,0.088
				c0.161,0.058,0.317,0.22,0.467,0.483l8.577,15.282C12.771,16.411,12.914,16.702,13.035,17.009z"/>
			<path fill="#00CC99" d="M55.335,12.702c0,1.86-0.294,3.566-0.883,5.121c-0.589,1.553-1.421,2.891-2.495,4.01
				c-1.074,1.122-2.365,1.991-3.872,2.606c-1.507,0.617-3.174,0.928-4.999,0.928c-1.826,0-3.489-0.311-4.99-0.928
				c-1.501-0.615-2.79-1.485-3.864-2.606c-1.074-1.119-1.906-2.457-2.495-4.01c-0.589-1.555-0.883-3.261-0.883-5.121
				c0-1.858,0.294-3.565,0.883-5.119c0.589-1.553,1.42-2.894,2.495-4.021c1.074-1.126,2.362-2.001,3.864-2.625
				C39.597,0.313,41.261,0,43.086,0c1.825,0,3.491,0.312,4.999,0.937c1.507,0.624,2.798,1.499,3.872,2.625
				c1.074,1.126,1.906,2.466,2.495,4.021C55.042,9.137,55.335,10.844,55.335,12.702z M51.888,12.702
				c0-1.523-0.208-2.893-0.624-4.105c-0.415-1.212-1.005-2.238-1.767-3.075c-0.763-0.837-1.687-1.481-2.772-1.932
				c-1.086-0.451-2.298-0.677-3.638-0.677c-1.328,0-2.536,0.227-3.622,0.677c-1.085,0.45-2.013,1.094-2.781,1.932
				c-0.768,0.839-1.36,1.863-1.775,3.075c-0.417,1.213-0.624,2.582-0.624,4.105c0,1.525,0.208,2.892,0.624,4.099
				s1.007,2.229,1.775,3.067c0.768,0.836,1.695,1.479,2.781,1.922c1.086,0.445,2.293,0.668,3.622,0.668
				c1.34,0,2.552-0.223,3.638-0.668c1.085-0.443,2.01-1.084,2.772-1.922c0.762-0.838,1.352-1.86,1.767-3.067
				C51.68,15.594,51.888,14.229,51.888,12.702z"/>
			<path fill="#00CC99" d="M82.987,12.702c0,1.86-0.294,3.566-0.884,5.121c-0.589,1.553-1.42,2.891-2.495,4.01
				c-1.074,1.122-2.365,1.991-3.872,2.606c-1.507,0.619-3.174,0.928-4.999,0.928c-1.826,0-3.488-0.311-4.99-0.928
				c-1.5-0.615-2.79-1.485-3.863-2.606c-1.075-1.119-1.906-2.457-2.495-4.01c-0.589-1.555-0.884-3.261-0.884-5.121
				c0-1.858,0.294-3.565,0.884-5.119c0.59-1.555,1.42-2.894,2.495-4.021c1.074-1.126,2.362-2.001,3.863-2.625
				C67.249,0.313,68.913,0,70.737,0c1.824,0,3.491,0.312,4.999,0.937c1.507,0.624,2.798,1.499,3.872,2.625
				c1.074,1.126,1.906,2.466,2.495,4.021C82.692,9.137,82.987,10.844,82.987,12.702z M79.54,12.702c0-1.523-0.209-2.893-0.625-4.105
				c-0.414-1.212-1.004-2.238-1.767-3.075S75.46,4.041,74.376,3.59c-1.086-0.451-2.297-0.677-3.638-0.677
				c-1.329,0-2.536,0.227-3.622,0.677c-1.084,0.45-2.013,1.094-2.781,1.932c-0.768,0.839-1.36,1.863-1.775,3.075
				c-0.416,1.213-0.624,2.582-0.624,4.105c0,1.525,0.208,2.892,0.624,4.099c0.415,1.207,1.007,2.229,1.775,3.067
				c0.768,0.836,1.695,1.479,2.781,1.922c1.086,0.445,2.293,0.668,3.622,0.668c1.341,0,2.552-0.223,3.638-0.668
				c1.086-0.443,2.011-1.084,2.772-1.922c0.763-0.838,1.353-1.86,1.767-3.067C79.333,15.594,79.54,14.229,79.54,12.702z"/>
			<path fill="#00CC99" d="M89.978,0.394c0.145,0.075,0.309,0.229,0.494,0.458l14.38,18.712c-0.035-0.3-0.058-0.592-0.069-0.875
				c-0.011-0.283-0.018-0.558-0.018-0.822V0.281h2.945v24.828h-1.698c-0.267,0-0.488-0.047-0.667-0.139
				c-0.18-0.092-0.355-0.248-0.528-0.467L90.454,5.809c0.021,0.289,0.041,0.572,0.051,0.849c0.012,0.277,0.018,0.531,0.018,0.763
				v17.688h-2.945V0.281h1.732C89.611,0.281,89.833,0.32,89.978,0.394z"/>
		</g>
		<g>
			<path fill="#333333" d="M130.979,25.109h-2.6c-0.301,0-0.543-0.074-0.728-0.225c-0.187-0.15-0.323-0.34-0.416-0.572l-2.321-5.994
				h-11.141l-2.322,5.994c-0.08,0.207-0.219,0.395-0.416,0.555c-0.197,0.162-0.438,0.242-0.728,0.242h-2.599l9.927-24.828h3.413
				L130.979,25.109z M114.71,15.891h9.271L120.084,5.79c-0.254-0.625-0.502-1.404-0.746-2.34c-0.127,0.475-0.25,0.91-0.373,1.31
				c-0.121,0.397-0.239,0.748-0.354,1.048L114.71,15.891z"/>
			<path fill="#333333" d="M137.806,14.747v10.36h-3.344V0.281h7.017c1.571,0,2.929,0.16,4.071,0.478
				c1.144,0.317,2.088,0.776,2.834,1.377c0.744,0.601,1.296,1.325,1.654,2.174c0.357,0.849,0.537,1.8,0.537,2.851
				c0,0.879-0.139,1.697-0.416,2.459c-0.277,0.763-0.68,1.447-1.205,2.054c-0.524,0.606-1.166,1.123-1.923,1.55
				c-0.756,0.428-1.614,0.751-2.573,0.971c0.418,0.242,0.787,0.594,1.109,1.057l7.243,9.859h-2.979
				c-0.612,0-1.063-0.234-1.353-0.711l-6.444-8.871c-0.197-0.277-0.41-0.476-0.642-0.597c-0.231-0.122-0.578-0.183-1.04-0.183
				h-2.546V14.747z M137.806,12.306h3.517c0.982,0,1.847-0.119,2.591-0.355c0.746-0.236,1.369-0.571,1.871-1.004
				c0.504-0.434,0.881-0.951,1.135-1.551c0.254-0.601,0.382-1.265,0.382-1.992c0-1.479-0.488-2.594-1.464-3.345
				s-2.43-1.126-4.357-1.126h-3.673L137.806,12.306L137.806,12.306z"/>
			<path fill="#333333" d="M173.341,0.281v2.824h-8.021v22.004h-3.361V3.105h-8.056V0.281H173.341z"/>
			<path fill="#333333" d="M191.982,0.004c0.912,0,1.744,0.146,2.494,0.442c0.752,0.293,1.4,0.685,1.949,1.168
				c0.549,0.484,0.98,1.049,1.301,1.689c0.319,0.64,0.498,1.309,0.545,2.001l-1.924,0.38c-0.059,0.012-0.108,0.018-0.154,0.018
				c-0.148,0-0.293-0.039-0.426-0.121c-0.133-0.08-0.229-0.225-0.285-0.434c-0.08-0.3-0.211-0.611-0.391-0.935
				c-0.181-0.323-0.41-0.618-0.693-0.884c-0.281-0.267-0.623-0.485-1.021-0.659c-0.397-0.173-0.864-0.261-1.396-0.261
				c-0.578,0-1.099,0.095-1.562,0.278c-0.461,0.185-0.856,0.442-1.188,0.771c-0.33,0.33-0.584,0.718-0.762,1.162
				c-0.181,0.444-0.271,0.927-0.271,1.447c0,0.403,0.051,0.79,0.146,1.159c0.098,0.37,0.246,0.743,0.441,1.118
				s0.449,0.762,0.764,1.161c0.312,0.396,0.688,0.817,1.127,1.256l7.137,7.259c0.439-0.773,0.789-1.585,1.05-2.435
				c0.262-0.851,0.438-1.701,0.526-2.556c0.023-0.219,0.094-0.393,0.209-0.52s0.277-0.189,0.484-0.189h1.904
				c-0.021,1.328-0.234,2.633-0.641,3.914c-0.404,1.283-0.988,2.484-1.75,3.604l5.196,5.266h-2.979
				c-0.334,0-0.604-0.041-0.812-0.121c-0.209-0.08-0.438-0.246-0.692-0.502l-2.496-2.511c-1.086,1.051-2.336,1.882-3.75,2.496
				c-1.416,0.611-2.973,0.918-4.67,0.918c-0.924,0-1.832-0.158-2.721-0.469c-0.89-0.312-1.683-0.766-2.382-1.359
				c-0.698-0.596-1.262-1.319-1.689-2.174c-0.427-0.855-0.641-1.819-0.641-2.894c0-0.809,0.136-1.574,0.406-2.297
				c0.271-0.722,0.646-1.389,1.125-2c0.479-0.611,1.049-1.16,1.707-1.646c0.659-0.485,1.381-0.901,2.166-1.248
				c-0.705-0.889-1.226-1.755-1.56-2.598c-0.334-0.844-0.502-1.717-0.502-2.617c0-0.844,0.152-1.635,0.459-2.374
				c0.305-0.739,0.748-1.384,1.326-1.931c0.577-0.55,1.277-0.982,2.104-1.3C190.027,0.161,190.955,0.004,191.982,0.004z
				 M185.104,18.247c0,0.75,0.14,1.412,0.416,1.983c0.277,0.572,0.642,1.056,1.092,1.447c0.451,0.394,0.964,0.69,1.541,0.894
				c0.578,0.201,1.168,0.303,1.77,0.303c1.294,0,2.455-0.236,3.48-0.711c1.027-0.474,1.937-1.104,2.722-1.889l-7.328-7.396
				c-1.226,0.658-2.146,1.445-2.764,2.365C185.413,16.16,185.104,17.161,185.104,18.247z"/>
			<path fill="#333333" d="M227.249,17.009c0.121,0.306,0.239,0.615,0.354,0.927c0.115-0.323,0.236-0.632,0.363-0.927
				s0.271-0.592,0.434-0.893l8.402-15.265c0.148-0.265,0.307-0.427,0.469-0.483c0.16-0.059,0.394-0.088,0.692-0.088h2.478v24.827
				h-2.944V6.865c0-0.242,0.008-0.502,0.021-0.779c0.012-0.278,0.027-0.562,0.051-0.85l-8.506,15.523
				c-0.289,0.52-0.693,0.779-1.213,0.779h-0.484c-0.521,0-0.926-0.26-1.213-0.779l-8.698-15.576
				c0.034,0.301,0.062,0.596,0.078,0.885c0.021,0.288,0.026,0.555,0.026,0.797v18.242h-2.947V0.281h2.479
				c0.3,0,0.528,0.029,0.69,0.088c0.162,0.058,0.318,0.22,0.47,0.483l8.575,15.282C226.984,16.411,227.128,16.702,227.249,17.009z"
				/>
			<path fill="#333333" d="M266.917,25.109h-2.603c-0.301,0-0.543-0.074-0.728-0.225c-0.187-0.15-0.323-0.34-0.416-0.572
				l-2.321-5.994h-11.14l-2.321,5.994c-0.08,0.207-0.22,0.395-0.416,0.555c-0.195,0.162-0.438,0.242-0.729,0.242h-2.6l9.928-24.828
				h3.414L266.917,25.109z M250.646,15.891h9.271L256.02,5.79c-0.254-0.625-0.502-1.403-0.744-2.34
				c-0.127,0.475-0.252,0.91-0.373,1.31c-0.12,0.397-0.239,0.748-0.354,1.048L250.646,15.891z"/>
			<path fill="#333333" d="M282.77,4.161c-0.104,0.174-0.213,0.304-0.328,0.391c-0.115,0.086-0.267,0.13-0.45,0.13
				c-0.195,0-0.425-0.099-0.685-0.295c-0.261-0.196-0.591-0.413-0.988-0.649c-0.396-0.236-0.877-0.453-1.438-0.649
				c-0.562-0.196-1.239-0.294-2.036-0.294c-0.751,0-1.415,0.101-1.992,0.303c-0.576,0.202-1.062,0.477-1.445,0.823
				c-0.387,0.347-0.68,0.754-0.875,1.221c-0.197,0.468-0.295,0.974-0.295,1.517c0,0.693,0.172,1.269,0.511,1.725
				c0.343,0.457,0.792,0.847,1.354,1.17c0.56,0.322,1.192,0.604,1.905,0.84c0.709,0.237,1.437,0.482,2.183,0.736
				c0.744,0.254,1.473,0.539,2.184,0.857c0.71,0.317,1.348,0.719,1.906,1.204c0.561,0.485,1.01,1.081,1.354,1.785
				c0.34,0.705,0.51,1.57,0.51,2.599c0,1.086-0.188,2.105-0.555,3.059c-0.369,0.953-0.908,1.781-1.62,2.486
				c-0.709,0.704-1.582,1.258-2.614,1.663c-1.035,0.402-2.209,0.605-3.526,0.605c-1.604,0-3.066-0.291-4.392-0.875
				c-1.322-0.582-2.453-1.371-3.389-2.365l0.971-1.594c0.094-0.128,0.205-0.234,0.338-0.321c0.133-0.086,0.28-0.129,0.441-0.129
				c0.24,0,0.521,0.129,0.83,0.39c0.312,0.261,0.701,0.545,1.172,0.857c0.467,0.312,1.031,0.598,1.695,0.857
				c0.664,0.259,1.479,0.39,2.438,0.39c0.797,0,1.506-0.11,2.131-0.33c0.623-0.219,1.15-0.528,1.584-0.927
				c0.435-0.399,0.766-0.875,0.996-1.43c0.229-0.555,0.349-1.172,0.349-1.854c0-0.75-0.171-1.365-0.513-1.845
				c-0.34-0.479-0.789-0.882-1.342-1.204c-0.558-0.324-1.188-0.598-1.896-0.823c-0.709-0.225-1.438-0.456-2.184-0.692
				c-0.746-0.237-1.476-0.512-2.186-0.823c-0.711-0.312-1.344-0.716-1.896-1.212c-0.556-0.497-1.002-1.118-1.343-1.863
				c-0.343-0.745-0.514-1.667-0.514-2.764c0-0.879,0.171-1.728,0.514-2.547c0.341-0.82,0.834-1.547,1.479-2.184
				c0.646-0.635,1.447-1.145,2.399-1.523c0.953-0.381,2.048-0.572,3.281-0.572c1.39,0,2.651,0.219,3.797,0.658
				c1.144,0.439,2.144,1.074,2.997,1.906L282.77,4.161z"/>
			<path fill="#333333" d="M305.327,0.281v2.824h-8.021v22.004h-3.361V3.105h-8.057V0.281H305.327z"/>
			<path fill="#333333" d="M324.161,0.281v2.738h-11.92v8.248h9.649V13.9h-9.649v8.473h11.92v2.738h-15.299V0.281H324.161z"/>
			<path fill="#333333" d="M332.685,14.747v10.36h-3.344V0.281h7.019c1.569,0,2.928,0.16,4.069,0.478
				c1.146,0.317,2.088,0.776,2.833,1.377s1.298,1.325,1.655,2.174c0.355,0.849,0.535,1.8,0.535,2.851
				c0,0.879-0.139,1.697-0.416,2.459c-0.275,0.763-0.679,1.447-1.202,2.054c-0.526,0.606-1.167,1.123-1.925,1.551
				c-0.758,0.429-1.613,0.751-2.572,0.97c0.417,0.243,0.784,0.596,1.107,1.057l7.242,9.859h-2.979c-0.612,0-1.062-0.234-1.354-0.711
				l-6.444-8.871c-0.194-0.277-0.408-0.476-0.643-0.597c-0.229-0.122-0.576-0.183-1.037-0.183h-2.545V14.747z M332.685,12.306h3.519
				c0.979,0,1.848-0.119,2.592-0.355c0.743-0.236,1.366-0.571,1.869-1.004c0.502-0.434,0.883-0.951,1.137-1.551
				c0.254-0.601,0.382-1.265,0.382-1.992c0-1.479-0.487-2.594-1.464-3.345c-0.979-0.751-2.431-1.126-4.356-1.126h-3.675
				L332.685,12.306L332.685,12.306z"/>
			<path fill="#333333" d="M364.026,4.161c-0.104,0.174-0.214,0.304-0.328,0.391c-0.113,0.086-0.268,0.13-0.451,0.13
				c-0.193,0-0.424-0.099-0.684-0.295c-0.262-0.196-0.591-0.413-0.988-0.649c-0.396-0.236-0.878-0.453-1.438-0.649
				c-0.562-0.196-1.238-0.294-2.036-0.294c-0.751,0-1.415,0.101-1.991,0.303c-0.577,0.202-1.061,0.477-1.446,0.823
				c-0.388,0.347-0.68,0.754-0.875,1.221c-0.195,0.468-0.295,0.974-0.295,1.517c0,0.693,0.17,1.269,0.513,1.725
				c0.341,0.457,0.791,0.847,1.352,1.17c0.562,0.322,1.195,0.604,1.905,0.84c0.711,0.237,1.438,0.482,2.185,0.736
				c0.745,0.254,1.475,0.539,2.185,0.857c0.711,0.317,1.346,0.719,1.904,1.204c0.562,0.485,1.013,1.081,1.353,1.785
				c0.343,0.705,0.513,1.57,0.513,2.599c0,1.086-0.186,2.105-0.556,3.059c-0.369,0.953-0.91,1.781-1.619,2.486
				c-0.711,0.704-1.583,1.258-2.616,1.663c-1.033,0.402-2.209,0.605-3.525,0.605c-1.604,0-3.067-0.291-4.391-0.875
				c-1.324-0.582-2.453-1.371-3.389-2.365l0.971-1.594c0.092-0.128,0.205-0.234,0.338-0.321c0.133-0.086,0.278-0.129,0.44-0.129
				c0.243,0,0.521,0.129,0.832,0.39c0.312,0.261,0.701,0.545,1.17,0.857c0.468,0.312,1.033,0.598,1.698,0.857
				c0.663,0.26,1.476,0.39,2.435,0.39c0.798,0,1.507-0.11,2.131-0.33c0.624-0.22,1.151-0.528,1.585-0.927
				c0.436-0.398,0.768-0.875,0.996-1.43c0.23-0.555,0.347-1.172,0.347-1.854c0-0.75-0.17-1.365-0.511-1.845
				c-0.343-0.479-0.789-0.882-1.345-1.204c-0.553-0.324-1.188-0.598-1.896-0.823c-0.71-0.225-1.438-0.456-2.184-0.692
				c-0.744-0.236-1.473-0.512-2.183-0.823c-0.711-0.312-1.346-0.716-1.897-1.212c-0.556-0.497-1.002-1.118-1.343-1.863
				s-0.512-1.667-0.512-2.764c0-0.879,0.171-1.728,0.512-2.547c0.341-0.82,0.834-1.547,1.479-2.184
				c0.646-0.635,1.447-1.143,2.399-1.523c0.953-0.38,2.048-0.572,3.283-0.572c1.387,0,2.648,0.219,3.794,0.658
				c1.145,0.44,2.145,1.074,2.997,1.906L364.026,4.161z"/>
		</g>
	</g>
	<g>
		<path fill="#3A3A3A" d="M109.833,43.432h-1.056c-0.715,0-1.278-0.209-1.69-0.627c-0.414-0.418-0.619-0.99-0.619-1.717v-3.729
			c0-0.727,0.207-1.297,0.619-1.717c0.412-0.418,0.976-0.627,1.69-0.627h3.498c0.11,0,0.165,0.066,0.165,0.199v8.018
			c0,0.133-0.055,0.199-0.165,0.199h-0.479c-0.121,0-0.18-0.066-0.18-0.199v-0.658h-0.066
			C111.264,43.145,110.691,43.432,109.833,43.432z M111.616,41.072v-5.164c0-0.1-0.055-0.146-0.164-0.146h-2.607
			c-0.506,0-0.891,0.145-1.155,0.428c-0.265,0.287-0.396,0.689-0.396,1.205v3.664c0,0.518,0.131,0.918,0.396,1.203
			c0.265,0.287,0.649,0.43,1.155,0.43h1.072c0.527,0,0.942-0.141,1.246-0.42C111.466,41.99,111.616,41.59,111.616,41.072z"/>
		<path fill="#3A3A3A" d="M115.56,43.432h-0.479c-0.11,0-0.166-0.066-0.166-0.199v-8.018c0-0.133,0.056-0.199,0.166-0.199h0.479
			c0.121,0,0.182,0.066,0.182,0.199v0.691h0.066c0.121-0.23,0.335-0.439,0.645-0.617c0.307-0.186,0.688-0.273,1.139-0.273h0.644
			c0.121,0,0.181,0.062,0.181,0.184v0.395c0,0.121-0.061,0.176-0.181,0.166h-0.776c-0.539,0-0.959,0.164-1.262,0.494
			c-0.303,0.33-0.453,0.773-0.453,1.338v5.643C115.741,43.365,115.681,43.432,115.56,43.432z"/>
		<path fill="#3A3A3A" d="M120.443,35.76h-1.006c-0.122,0-0.183-0.057-0.183-0.166v-0.396c0-0.121,0.061-0.182,0.183-0.182h1.006
			c0.099,0,0.147-0.051,0.147-0.148v-1.336c0-0.133,0.062-0.195,0.183-0.195h0.479c0.121,0,0.181,0.062,0.181,0.195v1.34
			c0,0.098,0.05,0.145,0.147,0.145h1.965c0.121,0,0.181,0.062,0.181,0.184v0.395c0,0.111-0.062,0.166-0.181,0.166h-1.965
			c-0.099,0-0.147,0.049-0.147,0.146v5.197c0,0.506,0.144,0.896,0.429,1.172c0.286,0.273,0.688,0.412,1.205,0.412h0.645
			c0.121,0,0.181,0.062,0.181,0.184v0.379c0,0.121-0.062,0.182-0.181,0.182h-0.709c-0.727,0-1.311-0.203-1.75-0.609
			c-0.439-0.404-0.659-0.969-0.659-1.684V35.91C120.591,35.809,120.542,35.76,120.443,35.76z"/>
		<path fill="#3A3A3A" d="M132.505,43.432h-0.66c-0.11,0-0.182-0.066-0.215-0.199l-2.31-8.018c-0.032-0.133,0.011-0.199,0.132-0.199
			h0.528c0.121,0,0.192,0.066,0.215,0.199l1.947,7.178h0.083l1.914-7.178c0.021-0.133,0.099-0.199,0.23-0.199h0.479
			c0.132,0,0.209,0.066,0.231,0.199l1.881,7.178h0.082l1.965-7.178c0.033-0.133,0.104-0.199,0.214-0.199h0.528
			c0.131,0,0.176,0.066,0.131,0.199l-2.293,8.018c-0.033,0.133-0.11,0.199-0.231,0.199h-0.66c-0.122,0-0.198-0.066-0.231-0.199
			l-1.832-6.963h-0.082l-1.815,6.963C132.702,43.365,132.626,43.432,132.505,43.432z"/>
		<path fill="#3A3A3A" d="M145.044,43.432h-1.418c-0.715,0-1.279-0.209-1.691-0.627c-0.413-0.418-0.619-0.99-0.619-1.717v-3.729
			c0-0.727,0.207-1.297,0.619-1.717c0.412-0.418,0.977-0.627,1.691-0.627h1.418c0.715,0,1.283,0.209,1.701,0.627
			c0.418,0.42,0.627,0.99,0.627,1.717v3.729c0,0.727-0.209,1.299-0.627,1.717S145.76,43.432,145.044,43.432z M143.691,42.689h1.287
			c0.506,0,0.894-0.141,1.164-0.422c0.269-0.279,0.403-0.678,0.403-1.195v-3.693c0-0.52-0.135-0.916-0.403-1.197
			c-0.271-0.279-0.658-0.42-1.164-0.42h-1.287c-0.506,0-0.892,0.141-1.155,0.42c-0.264,0.281-0.396,0.682-0.396,1.197v3.693
			c0,0.52,0.132,0.916,0.396,1.195C142.8,42.549,143.186,42.689,143.691,42.689z"/>
		<path fill="#3A3A3A" d="M150.308,43.432h-0.479c-0.11,0-0.166-0.066-0.166-0.199v-8.018c0-0.133,0.055-0.199,0.166-0.199h0.479
			c0.121,0,0.182,0.066,0.182,0.199v0.691h0.066c0.121-0.23,0.335-0.439,0.645-0.617c0.307-0.186,0.688-0.273,1.139-0.273h0.644
			c0.121,0,0.181,0.062,0.181,0.184v0.395c0,0.121-0.061,0.176-0.181,0.166h-0.776c-0.539,0-0.959,0.164-1.262,0.494
			c-0.303,0.33-0.453,0.773-0.453,1.338v5.643C150.489,43.365,150.429,43.432,150.308,43.432z"/>
		<path fill="#3A3A3A" d="M155.555,43.432h-0.479c-0.109,0-0.164-0.066-0.164-0.199V32.031c0-0.133,0.055-0.197,0.164-0.197h0.479
			c0.12,0,0.182,0.064,0.182,0.197v11.201C155.735,43.365,155.675,43.432,155.555,43.432z"/>
		<path fill="#3A3A3A" d="M161.512,43.432h-1.105c-0.704,0-1.26-0.209-1.667-0.627c-0.406-0.418-0.611-0.99-0.611-1.717v-3.729
			c0-0.727,0.205-1.297,0.611-1.717c0.407-0.418,0.963-0.627,1.667-0.627h1.105c0.847,0,1.424,0.287,1.731,0.859h0.066v-3.848
			c0-0.133,0.055-0.195,0.165-0.195h0.479c0.121,0,0.182,0.062,0.182,0.195V43.23c0,0.133-0.061,0.199-0.182,0.199h-0.479
			c-0.11,0-0.165-0.066-0.165-0.199v-0.658h-0.066C162.936,43.145,162.357,43.432,161.512,43.432z M163.31,41.072v-3.693
			c0-0.52-0.15-0.916-0.454-1.197c-0.303-0.279-0.718-0.42-1.246-0.42h-1.104c-0.506,0-0.892,0.145-1.155,0.428
			c-0.265,0.287-0.396,0.689-0.396,1.205v3.664c0,0.518,0.131,0.918,0.396,1.203c0.264,0.287,0.649,0.43,1.155,0.43h1.104
			c0.528,0,0.943-0.141,1.246-0.42C163.159,41.988,163.31,41.59,163.31,41.072z"/>
		<path fill="#3A3A3A" d="M176.608,43.432h-3.449c-0.715,0-1.279-0.209-1.69-0.627c-0.413-0.418-0.619-0.99-0.619-1.717v-3.729
			c0-0.727,0.207-1.297,0.619-1.717c0.411-0.418,0.976-0.627,1.69-0.627h1.42c0.715,0,1.281,0.209,1.699,0.627
			c0.418,0.42,0.627,0.99,0.627,1.717v2.098c0,0.133-0.066,0.197-0.197,0.197h-4.885c-0.099,0-0.147,0.049-0.147,0.146v1.271
			c0,0.52,0.132,0.916,0.396,1.195c0.264,0.281,0.649,0.422,1.155,0.422h3.382c0.121,0,0.182,0.062,0.182,0.184v0.379
			C176.79,43.371,176.729,43.432,176.608,43.432z M171.823,38.994h4.108c0.099,0,0.149-0.053,0.149-0.148v-1.469
			c0-0.52-0.133-0.916-0.396-1.197c-0.264-0.279-0.648-0.42-1.155-0.42h-1.303c-0.506,0-0.892,0.141-1.155,0.42
			c-0.264,0.281-0.396,0.682-0.396,1.197v1.469C171.675,38.943,171.725,38.994,171.823,38.994z"/>
		<path fill="#3A3A3A" d="M179.034,43.432h-0.611c-0.144,0-0.17-0.066-0.084-0.199l2.394-4.092l-2.276-3.926
			c-0.088-0.133-0.062-0.199,0.082-0.199h0.594c0.121,0,0.216,0.066,0.281,0.199l1.864,3.365h0.066l1.782-3.365
			c0.076-0.133,0.17-0.199,0.281-0.199h0.594c0.144,0,0.17,0.066,0.082,0.199l-2.228,3.893l2.427,4.125
			c0.075,0.133,0.049,0.199-0.084,0.199h-0.66c-0.088,0-0.164-0.066-0.23-0.199l-1.963-3.527h-0.066l-1.963,3.527
			C179.236,43.365,179.144,43.432,179.034,43.432z"/>
		<path fill="#3A3A3A" d="M186.591,45.891h-0.479c-0.109,0-0.164-0.061-0.164-0.182V35.215c0-0.133,0.055-0.199,0.164-0.199h0.479
			c0.121,0,0.183,0.066,0.183,0.199v0.66h0.065c0.308-0.572,0.88-0.859,1.716-0.859h1.122c0.704,0,1.261,0.209,1.667,0.627
			c0.406,0.42,0.608,0.99,0.608,1.717v3.729c0,0.727-0.203,1.299-0.608,1.717c-0.406,0.418-0.963,0.627-1.667,0.627h-1.122
			c-0.836,0-1.408-0.287-1.716-0.857h-0.065v3.137C186.771,45.83,186.712,45.891,186.591,45.891z M188.473,42.689h1.088
			c0.506,0,0.895-0.141,1.164-0.422c0.269-0.279,0.403-0.684,0.403-1.213v-3.662c0-0.527-0.137-0.932-0.403-1.213
			c-0.271-0.281-0.658-0.42-1.164-0.42h-1.088c-0.529,0-0.943,0.139-1.246,0.42c-0.304,0.281-0.455,0.68-0.455,1.195v3.695
			c0,0.52,0.151,0.916,0.455,1.195C187.527,42.547,187.943,42.689,188.473,42.689z"/>
		<path fill="#3A3A3A" d="M199.855,43.432h-3.448c-0.716,0-1.276-0.209-1.688-0.627s-0.619-0.99-0.619-1.717v-3.729
			c0-0.727,0.207-1.297,0.619-1.717c0.412-0.418,0.977-0.627,1.688-0.627h1.42c0.717,0,1.28,0.209,1.698,0.627
			c0.418,0.42,0.627,0.99,0.627,1.717v2.098c0,0.133-0.063,0.197-0.196,0.197h-4.886c-0.1,0-0.146,0.049-0.146,0.146v1.271
			c0,0.52,0.132,0.916,0.396,1.195c0.267,0.281,0.648,0.422,1.154,0.422h3.383c0.121,0,0.183,0.062,0.183,0.184v0.379
			C200.038,43.371,199.979,43.432,199.855,43.432z M195.07,38.994h4.109c0.098,0,0.146-0.053,0.146-0.148v-1.469
			c0-0.52-0.133-0.916-0.396-1.197c-0.264-0.279-0.648-0.42-1.154-0.42h-1.305c-0.506,0-0.892,0.141-1.154,0.42
			c-0.265,0.281-0.396,0.682-0.396,1.197v1.469C194.923,38.943,194.973,38.994,195.07,38.994z"/>
		<path fill="#3A3A3A" d="M203.023,43.432h-0.479c-0.109,0-0.165-0.066-0.165-0.199v-8.018c0-0.133,0.056-0.199,0.165-0.199h0.479
			c0.121,0,0.183,0.066,0.183,0.199v0.691h0.065c0.121-0.23,0.336-0.439,0.644-0.617c0.312-0.186,0.688-0.273,1.142-0.273h0.645
			c0.119,0,0.183,0.062,0.183,0.184v0.395c0,0.121-0.062,0.176-0.183,0.166h-0.773c-0.539,0-0.961,0.164-1.266,0.494
			c-0.303,0.33-0.451,0.773-0.451,1.338v5.643C203.206,43.365,203.146,43.432,203.023,43.432z"/>
		<path fill="#3A3A3A" d="M207.908,35.76H206.9c-0.121,0-0.182-0.057-0.182-0.166v-0.396c0-0.121,0.061-0.182,0.182-0.182h1.008
			c0.101,0,0.148-0.051,0.148-0.148v-1.336c0-0.133,0.061-0.195,0.182-0.195h0.479c0.12,0,0.182,0.062,0.182,0.195v1.34
			c0,0.098,0.051,0.145,0.147,0.145h1.966c0.119,0,0.18,0.062,0.18,0.184v0.395c0,0.111-0.061,0.166-0.18,0.166h-1.966
			c-0.101,0-0.147,0.049-0.147,0.146v5.197c0,0.506,0.146,0.896,0.43,1.172c0.285,0.273,0.688,0.412,1.205,0.412h0.645
			c0.121,0,0.182,0.062,0.182,0.184v0.379c0,0.121-0.061,0.182-0.182,0.182h-0.709c-0.729,0-1.312-0.203-1.748-0.609
			c-0.441-0.404-0.66-0.969-0.66-1.684V35.91C208.057,35.809,208.007,35.76,207.908,35.76z"/>
		<path fill="#3A3A3A" d="M215.993,43.432h-2.871c-0.119,0-0.183-0.061-0.183-0.182v-0.379c0-0.111,0.062-0.166,0.183-0.166h2.788
			c0.99,0,1.484-0.389,1.484-1.154v-0.396c0-0.715-0.309-1.182-0.924-1.4l-2.062-0.791c-0.562-0.223-0.961-0.48-1.195-0.775
			c-0.235-0.297-0.354-0.711-0.354-1.236c0-1.285,0.709-1.932,2.129-1.932h2.673c0.121,0,0.185,0.062,0.185,0.184v0.381
			c0,0.105-0.062,0.164-0.185,0.164h-2.591c-0.45,0-0.789,0.1-1.016,0.297s-0.338,0.43-0.338,0.691v0.379
			c0,0.311,0.085,0.553,0.256,0.729c0.17,0.176,0.432,0.324,0.783,0.445l2.062,0.822c0.572,0.188,0.955,0.467,1.146,0.834
			s0.287,0.885,0.287,1.543s-0.185,1.148-0.553,1.471C217.333,43.271,216.764,43.432,215.993,43.432z"/>
		<path fill="#3A3A3A" d="M226.521,35.016h1.5c0.133,0,0.199,0.062,0.199,0.184v0.381c0,0.119-0.066,0.182-0.199,0.182h-1.5
			c-0.101,0-0.149,0.049-0.149,0.146v7.324c0,0.133-0.062,0.199-0.181,0.199h-0.479c-0.121,0-0.185-0.066-0.185-0.199v-7.324
			c0-0.1-0.049-0.146-0.146-0.146h-1.06c-0.12,0-0.182-0.061-0.182-0.182v-0.381c0-0.119,0.062-0.184,0.182-0.184h1.06
			c0.099,0,0.146-0.049,0.146-0.146v-0.727c0-1.541,0.697-2.311,2.099-2.311h0.396c0.133,0,0.199,0.061,0.199,0.182v0.379
			c0,0.121-0.066,0.182-0.199,0.182h-0.312c-0.495,0-0.844,0.135-1.039,0.396c-0.198,0.264-0.3,0.666-0.3,1.205v0.689
			C226.371,34.967,226.421,35.016,226.521,35.016z"/>
		<path fill="#3A3A3A" d="M233.352,43.432h-1.42c-0.715,0-1.277-0.209-1.689-0.627c-0.413-0.418-0.619-0.99-0.619-1.717v-3.729
			c0-0.727,0.206-1.297,0.619-1.717c0.412-0.418,0.979-0.627,1.689-0.627h1.42c0.715,0,1.28,0.209,1.698,0.627
			c0.418,0.42,0.627,0.99,0.627,1.717v3.729c0,0.727-0.209,1.299-0.627,1.717S234.064,43.432,233.352,43.432z M231.998,42.689h1.286
			c0.506,0,0.896-0.141,1.164-0.422c0.271-0.279,0.403-0.678,0.403-1.195v-3.693c0-0.52-0.135-0.916-0.403-1.197
			c-0.271-0.279-0.658-0.42-1.164-0.42h-1.286c-0.507,0-0.893,0.141-1.152,0.42c-0.267,0.281-0.396,0.682-0.396,1.197v3.693
			c0,0.52,0.133,0.916,0.396,1.195C231.105,42.549,231.491,42.689,231.998,42.689z"/>
		<path fill="#3A3A3A" d="M238.613,43.432h-0.479c-0.109,0-0.166-0.066-0.166-0.199v-8.018c0-0.133,0.057-0.199,0.166-0.199h0.479
			c0.121,0,0.185,0.066,0.185,0.199v0.691h0.063c0.121-0.23,0.334-0.439,0.646-0.617c0.308-0.186,0.688-0.273,1.14-0.273h0.644
			c0.12,0,0.183,0.062,0.183,0.184v0.395c0,0.121-0.062,0.176-0.183,0.166h-0.774c-0.539,0-0.959,0.164-1.262,0.494
			c-0.305,0.33-0.453,0.773-0.453,1.338v5.643C238.796,43.365,238.734,43.432,238.613,43.432z"/>
		<path fill="#3A3A3A" d="M247.938,45.939h-0.611c-0.121,0-0.182-0.061-0.182-0.182v-0.396c0-0.121,0.061-0.182,0.182-0.182h0.445
			c0.33,0,0.61-0.047,0.842-0.141c0.23-0.096,0.438-0.27,0.611-0.521c0.172-0.25,0.291-0.451,0.346-0.594
			c0.154-0.34,0.281-0.654,0.38-0.939h-0.312c-0.121,0-0.199-0.064-0.23-0.195l-2.624-7.574c-0.044-0.133,0-0.197,0.132-0.197h0.514
			c0.107,0,0.182,0.064,0.215,0.197l2.426,7.078h0.066l2.424-7.078c0.033-0.133,0.104-0.197,0.215-0.197h0.496
			c0.131,0,0.182,0.064,0.146,0.197c-1.97,5.764-2.993,8.744-3.075,8.941s-0.234,0.469-0.453,0.811
			C249.465,45.615,248.814,45.939,247.938,45.939z"/>
		<path fill="#3A3A3A" d="M258.678,43.432h-1.419c-0.715,0-1.278-0.209-1.69-0.627s-0.619-0.99-0.619-1.717v-3.729
			c0-0.727,0.207-1.297,0.619-1.717c0.412-0.418,0.979-0.627,1.69-0.627h1.419c0.717,0,1.282,0.209,1.7,0.627
			c0.418,0.42,0.627,0.99,0.627,1.717v3.729c0,0.727-0.209,1.299-0.627,1.717S259.395,43.432,258.678,43.432z M257.325,42.689h1.286
			c0.507,0,0.896-0.141,1.164-0.422c0.27-0.279,0.404-0.678,0.404-1.195v-3.693c0-0.52-0.137-0.916-0.404-1.197
			c-0.271-0.279-0.657-0.42-1.164-0.42h-1.286c-0.507,0-0.892,0.141-1.153,0.42c-0.268,0.281-0.396,0.682-0.396,1.197v3.693
			c0,0.52,0.132,0.916,0.396,1.195C256.436,42.549,256.818,42.689,257.325,42.689z"/>
		<path fill="#3A3A3A" d="M266.581,43.432h-1.089c-0.704,0-1.26-0.209-1.667-0.627c-0.404-0.418-0.608-0.99-0.608-1.717v-5.873
			c0-0.133,0.057-0.199,0.165-0.199h0.479c0.121,0,0.184,0.066,0.184,0.199v5.84c0,0.518,0.132,0.92,0.396,1.205
			c0.264,0.287,0.647,0.43,1.154,0.43h1.07c0.527,0,0.941-0.141,1.245-0.422c0.305-0.279,0.454-0.678,0.454-1.195v-5.855
			c0-0.133,0.062-0.197,0.183-0.197h0.479c0.109,0,0.166,0.064,0.166,0.197v8.02c0,0.133-0.057,0.197-0.166,0.197h-0.479
			c-0.12,0-0.183-0.064-0.183-0.197v-0.658H268.3C268.011,43.145,267.438,43.432,266.581,43.432z"/>
		<path fill="#3A3A3A" d="M272.307,43.432h-0.479c-0.106,0-0.164-0.066-0.164-0.199v-8.018c0-0.133,0.058-0.199,0.164-0.199h0.479
			c0.12,0,0.182,0.066,0.182,0.199v0.691h0.066c0.12-0.23,0.336-0.439,0.644-0.617c0.31-0.184,0.688-0.273,1.141-0.273h0.644
			c0.121,0,0.183,0.062,0.183,0.184v0.395c0,0.121-0.062,0.176-0.183,0.166h-0.772c-0.539,0-0.961,0.164-1.265,0.494
			c-0.303,0.33-0.454,0.773-0.454,1.338v5.643C272.486,43.365,272.427,43.432,272.307,43.432z"/>
		<path fill="#3A3A3A" d="M284.434,43.432h-1.056c-0.717,0-1.278-0.209-1.69-0.627s-0.619-0.99-0.619-1.717v-3.729
			c0-0.727,0.207-1.297,0.619-1.717c0.412-0.418,0.977-0.627,1.69-0.627h3.498c0.106,0,0.162,0.066,0.162,0.199v8.018
			c0,0.133-0.056,0.199-0.162,0.199h-0.479c-0.121,0-0.182-0.066-0.182-0.199v-0.658h-0.066
			C285.863,43.145,285.292,43.432,284.434,43.432z M286.216,41.072v-5.164c0-0.1-0.057-0.146-0.165-0.146h-2.605
			c-0.508,0-0.893,0.145-1.156,0.428c-0.264,0.287-0.396,0.689-0.396,1.205v3.664c0,0.518,0.133,0.918,0.396,1.203
			c0.268,0.287,0.648,0.43,1.156,0.43h1.072c0.526,0,0.94-0.141,1.244-0.42C286.064,41.99,286.216,41.59,286.216,41.072z"/>
		<path fill="#3A3A3A" d="M290.159,43.432h-0.479c-0.109,0-0.164-0.066-0.164-0.199v-8.018c0-0.133,0.055-0.199,0.164-0.199h0.479
			c0.12,0,0.184,0.066,0.184,0.199v0.691h0.064c0.12-0.23,0.335-0.439,0.645-0.617c0.31-0.186,0.688-0.273,1.14-0.273h0.646
			c0.118,0,0.181,0.062,0.181,0.184v0.395c0,0.121-0.062,0.176-0.181,0.166h-0.776c-0.539,0-0.959,0.164-1.263,0.494
			c-0.305,0.33-0.453,0.773-0.453,1.338v5.643C290.341,43.365,290.279,43.432,290.159,43.432z"/>
		<path fill="#3A3A3A" d="M295.043,35.76h-1.009c-0.121,0-0.183-0.057-0.183-0.166v-0.396c0-0.121,0.062-0.182,0.183-0.182h1.009
			c0.1,0,0.146-0.051,0.146-0.148v-1.336c0-0.133,0.062-0.195,0.182-0.195h0.479c0.121,0,0.182,0.062,0.182,0.195v1.34
			c0,0.098,0.053,0.145,0.148,0.145h1.965c0.119,0,0.181,0.062,0.181,0.184v0.395c0,0.111-0.062,0.166-0.181,0.166h-1.965
			c-0.1,0-0.148,0.049-0.148,0.146v5.197c0,0.506,0.146,0.896,0.432,1.172c0.283,0.273,0.688,0.412,1.205,0.412h0.643
			c0.121,0,0.183,0.062,0.183,0.184v0.379c0,0.121-0.062,0.182-0.183,0.182h-0.709c-0.729,0-1.31-0.203-1.748-0.609
			c-0.44-0.404-0.66-0.969-0.66-1.684V35.91C295.191,35.809,295.143,35.76,295.043,35.76z"/>
		<path fill="#3A3A3A" d="M309.513,42.871v0.379c0,0.121-0.062,0.182-0.184,0.182h-2.375c-0.715,0-1.277-0.209-1.688-0.627
			c-0.412-0.418-0.619-0.99-0.619-1.717v-3.729c0-0.727,0.207-1.297,0.619-1.717c0.411-0.418,0.977-0.627,1.688-0.627h2.375
			c0.121,0,0.184,0.062,0.184,0.184v0.395c0,0.111-0.062,0.166-0.184,0.166h-2.31c-0.507,0-0.892,0.145-1.155,0.428
			c-0.265,0.287-0.396,0.689-0.396,1.205v3.664c0,0.518,0.132,0.918,0.396,1.203c0.267,0.287,0.648,0.43,1.155,0.43h2.31
			C309.452,42.689,309.513,42.75,309.513,42.871z"/>
		<path fill="#3A3A3A" d="M314.876,43.432h-1.422c-0.715,0-1.276-0.209-1.688-0.627s-0.618-0.99-0.618-1.717v-3.729
			c0-0.727,0.206-1.297,0.618-1.717c0.412-0.418,0.977-0.627,1.688-0.627h1.422c0.715,0,1.279,0.209,1.697,0.627
			c0.418,0.42,0.627,0.99,0.627,1.717v3.729c0,0.727-0.209,1.299-0.627,1.717S315.591,43.432,314.876,43.432z M313.522,42.689h1.286
			c0.507,0,0.895-0.141,1.164-0.422c0.27-0.279,0.404-0.678,0.404-1.195v-3.693c0-0.52-0.138-0.916-0.404-1.197
			c-0.271-0.279-0.657-0.42-1.164-0.42h-1.286c-0.507,0-0.892,0.141-1.154,0.42c-0.266,0.281-0.396,0.682-0.396,1.197v3.693
			c0,0.52,0.132,0.916,0.396,1.195C312.633,42.549,313.017,42.689,313.522,42.689z"/>
		<path fill="#3A3A3A" d="M320.222,43.432h-0.479c-0.108,0-0.166-0.066-0.166-0.199V32.031c0-0.133,0.058-0.197,0.166-0.197h0.479
			c0.121,0,0.183,0.064,0.183,0.197v11.201C320.403,43.365,320.343,43.432,320.222,43.432z"/>
		<path fill="#3A3A3A" d="M323.688,43.432h-0.479c-0.108,0-0.165-0.066-0.165-0.199V32.031c0-0.133,0.057-0.197,0.165-0.197h0.479
			c0.12,0,0.182,0.064,0.182,0.197v11.201C323.868,43.365,323.808,43.432,323.688,43.432z"/>
		<path fill="#3A3A3A" d="M332.019,43.432h-3.448c-0.715,0-1.278-0.209-1.688-0.627c-0.413-0.418-0.619-0.99-0.619-1.717v-3.729
			c0-0.727,0.206-1.297,0.619-1.717c0.411-0.418,0.977-0.627,1.688-0.627h1.42c0.715,0,1.281,0.209,1.699,0.627
			c0.418,0.42,0.627,0.99,0.627,1.717v2.098c0,0.133-0.066,0.197-0.197,0.197h-4.885c-0.101,0-0.146,0.049-0.146,0.146v1.271
			c0,0.52,0.132,0.916,0.396,1.195c0.264,0.281,0.647,0.422,1.153,0.422h3.384c0.12,0,0.182,0.062,0.182,0.184v0.379
			C332.2,43.371,332.14,43.432,332.019,43.432z M327.233,38.994h4.107c0.1,0,0.147-0.053,0.147-0.148v-1.469
			c0-0.52-0.133-0.916-0.396-1.197c-0.266-0.279-0.648-0.42-1.154-0.42h-1.305c-0.506,0-0.893,0.141-1.153,0.42
			c-0.266,0.281-0.396,0.682-0.396,1.197v1.469C327.085,38.943,327.134,38.994,327.233,38.994z"/>
		<path fill="#3A3A3A" d="M339.245,42.871v0.379c0,0.121-0.062,0.182-0.183,0.182h-2.375c-0.715,0-1.278-0.209-1.69-0.627
			c-0.41-0.418-0.617-0.99-0.617-1.717v-3.729c0-0.727,0.207-1.297,0.617-1.717c0.412-0.418,0.979-0.627,1.69-0.627h2.375
			c0.121,0,0.183,0.062,0.183,0.184v0.395c0,0.111-0.062,0.166-0.183,0.166h-2.309c-0.509,0-0.894,0.145-1.156,0.428
			c-0.264,0.287-0.396,0.689-0.396,1.205v3.664c0,0.518,0.134,0.918,0.396,1.203c0.266,0.287,0.647,0.43,1.156,0.43h2.309
			C339.185,42.689,339.245,42.75,339.245,42.871z"/>
		<path fill="#3A3A3A" d="M341.407,35.76H340.4c-0.122,0-0.183-0.057-0.183-0.166v-0.396c0-0.121,0.061-0.182,0.183-0.182h1.007
			c0.101,0,0.147-0.051,0.147-0.148v-1.336c0-0.133,0.062-0.195,0.183-0.195h0.479c0.12,0,0.182,0.062,0.182,0.195v1.34
			c0,0.098,0.05,0.145,0.147,0.145h1.964c0.121,0,0.183,0.062,0.183,0.184v0.395c0,0.111-0.062,0.166-0.183,0.166h-1.964
			c-0.101,0-0.147,0.049-0.147,0.146v5.197c0,0.506,0.146,0.896,0.429,1.172c0.286,0.273,0.688,0.412,1.205,0.412h0.646
			c0.12,0,0.182,0.062,0.182,0.184v0.379c0,0.121-0.062,0.182-0.182,0.182h-0.71c-0.728,0-1.311-0.203-1.748-0.609
			c-0.44-0.404-0.66-0.969-0.66-1.684V35.91C341.556,35.809,341.506,35.76,341.407,35.76z"/>
		<path fill="#3A3A3A" d="M346.852,33.631v-1.584c0-0.121,0.057-0.184,0.165-0.184h0.495c0.108,0,0.165,0.061,0.165,0.184v1.584
			c0,0.131-0.057,0.197-0.165,0.197h-0.495C346.907,33.828,346.852,33.762,346.852,33.631z M346.852,43.232v-8.018
			c0-0.133,0.057-0.199,0.165-0.199h0.479c0.121,0,0.184,0.066,0.184,0.199v8.018c0,0.133-0.057,0.199-0.165,0.199h-0.495
			C346.907,43.432,346.852,43.365,346.852,43.232z"/>
		<path fill="#3A3A3A" d="M350.878,43.432h-0.479c-0.11,0-0.166-0.066-0.166-0.199v-8.018c0-0.133,0.056-0.199,0.166-0.199h0.479
			c0.119,0,0.182,0.066,0.182,0.199v0.66h0.063c0.31-0.572,0.882-0.859,1.718-0.859h1.09c0.703,0,1.26,0.209,1.666,0.627
			c0.406,0.42,0.608,0.99,0.608,1.717v5.873c0,0.133-0.056,0.199-0.165,0.199h-0.479c-0.121,0-0.182-0.066-0.182-0.199v-5.84
			c0-0.518-0.134-0.918-0.396-1.205c-0.265-0.285-0.646-0.428-1.154-0.428h-1.07c-0.528,0-0.942,0.139-1.246,0.42
			c-0.303,0.281-0.453,0.68-0.453,1.195v5.855C351.06,43.365,350.999,43.432,350.878,43.432z"/>
		<path fill="#3A3A3A" d="M361.866,42.953h-1.07c-0.704,0-1.264-0.211-1.677-0.629s-0.616-0.982-0.616-1.697v-3.271
			c0-0.725,0.203-1.297,0.616-1.715s0.978-0.627,1.69-0.627h3.497c0.121,0,0.183,0.064,0.183,0.197v8.184
			c0,0.73-0.209,1.299-0.627,1.719c-0.418,0.418-0.982,0.627-1.699,0.627h-3.003c-0.12,0-0.182-0.062-0.182-0.184v-0.395
			c0-0.109,0.062-0.166,0.182-0.166h2.938c0.506,0,0.893-0.143,1.156-0.422s0.396-0.686,0.396-1.213V42.09h-0.063
			C363.308,42.666,362.735,42.953,361.866,42.953z M363.648,40.594v-4.688c0-0.102-0.051-0.146-0.146-0.146h-2.607
			c-0.506,0-0.896,0.139-1.162,0.42c-0.271,0.281-0.404,0.686-0.404,1.213v3.201c0,0.518,0.137,0.916,0.404,1.195
			c0.27,0.277,0.656,0.422,1.162,0.422h1.057c0.529,0,0.942-0.145,1.246-0.422C363.498,41.51,363.648,41.111,363.648,40.594z"/>
	</g>
</g>
</svg>
